<?xml version="1.0" encoding="utf-8"?>
<!-- Generator: Adobe Illustrator 24.3.0, SVG Export Plug-In . SVG Version: 6.00 Build 0)  -->
<svg version="1.1" id="Capa_1" xmlns="http://www.w3.org/2000/svg" xmlns:xlink="http://www.w3.org/1999/xlink" x="0px" y="0px"
	 viewBox="0 0 512 512" style="enable-background:new 0 0 512 512;" xml:space="preserve">
<style type="text/css">
	.st0{fill:#FFFFFF;}
</style>
<g>
	<g>
		<path class="st0" d="M256,98.3c-8.3,0-15-6.7-15-15V15c0-8.3,6.7-15,15-15s15,6.7,15,15v68.3C271,91.6,264.3,98.3,256,98.3z"/>
	</g>
	<g>
		<path class="st0" d="M497,271h-68.3c-8.3,0-15-6.7-15-15s6.7-15,15-15H497c8.3,0,15,6.7,15,15S505.3,271,497,271z"/>
	</g>
	<g>
		<path class="st0" d="M256,512c-8.3,0-15-6.7-15-15v-68.3c0-8.3,6.7-15,15-15s15,6.7,15,15V497C271,505.3,264.3,512,256,512z"/>
	</g>
	<g>
		<path class="st0" d="M83.3,271H15c-8.3,0-15-6.7-15-15s6.7-15,15-15h68.3c8.3,0,15,6.7,15,15S91.6,271,83.3,271z"/>
	</g>
	<g>
		<g>
			<g>
				<path class="st0" d="M256,385.5c-71.4,0-129.5-58.1-129.5-129.5S184.6,126.5,256,126.5S385.5,184.6,385.5,256
					S327.4,385.5,256,385.5z M256,156.5c-54.9,0-99.5,44.6-99.5,99.5s44.6,99.5,99.5,99.5s99.5-44.6,99.5-99.5
					S310.9,156.5,256,156.5z"/>
			</g>
		</g>
	</g>
	<g>
		<path class="st0" d="M395.9,131.9c-3.8,0-7.7-1.5-10.6-4.4c-5.9-5.9-5.9-15.4,0-21.2l36.9-36.9c5.9-5.9,15.4-5.9,21.2,0
			s5.9,15.4,0,21.2l-36.9,36.9C403.6,130.4,399.8,131.9,395.9,131.9L395.9,131.9z"/>
	</g>
	<g>
		<path class="st0" d="M432.8,448.6c-3.8,0-7.7-1.5-10.6-4.4l-36.9-36.9c-5.9-5.9-5.9-15.4,0-21.2c5.9-5.9,15.4-5.9,21.2,0
			l36.9,36.9c5.9,5.9,5.9,15.4,0,21.2C440.5,447.1,436.6,448.6,432.8,448.6L432.8,448.6z"/>
	</g>
	<g>
		<path class="st0" d="M79.2,448.6c-3.8,0-7.7-1.5-10.6-4.4c-5.9-5.9-5.9-15.4,0-21.2l36.9-36.9c5.9-5.9,15.4-5.9,21.2,0
			s5.9,15.4,0,21.2l-36.9,36.9C86.9,447.1,83.1,448.6,79.2,448.6L79.2,448.6z"/>
	</g>
	<g>
		<path class="st0" d="M116.1,131.9c-3.8,0-7.7-1.5-10.6-4.4L68.6,90.7c-5.9-5.9-5.9-15.4,0-21.2c5.9-5.9,15.4-5.9,21.2,0l36.9,36.9
			c5.9,5.9,5.9,15.4,0,21.2C123.8,130.4,119.9,131.9,116.1,131.9L116.1,131.9z"/>
	</g>
</g>
</svg>
